<svg width="28" height="28" viewBox="0 0 28 28" fill="none" xmlns="http://www.w3.org/2000/svg">
<path fill-rule="evenodd" clip-rule="evenodd" d="M19.16 25.8772C19.2 26.0905 19.08 26.3172 18.88 26.3972C17.3734 26.9972 15.72 27.3172 14.0134 27.3172C11.0667 27.3172 8.34669 26.3705 6.14669 24.7438C5.96002 24.6105 5.90669 24.3438 6.02669 24.1438C6.76002 22.8372 9.62669 18.6372 15.96 16.2905C16.2 16.1972 16.4667 16.3172 16.5467 16.5572C18.1334 20.8105 18.88 24.4105 19.16 25.8772ZM27.08 16.5012C26.4685 19.7263 24.6762 22.6074 22.0534 24.5812C21.7734 24.7945 21.3734 24.6345 21.3067 24.3012C21.0267 22.8612 20.3467 19.7545 19.04 16.0612C18.9467 15.7812 19.1334 15.4745 19.4267 15.4345C22.7467 15.0345 25.6534 15.6745 26.7467 15.9678C26.9734 16.0478 27.12 16.2745 27.08 16.5012ZM26.7734 13.7425C25.4134 13.5025 21.9467 12.9958 18.4 13.3825C18.1867 13.4092 18 13.2892 17.9067 13.0892C17.8534 12.9692 17.8134 12.8492 17.76 12.7292C17.5467 12.2358 17.32 11.7292 17.0934 11.2358C16.9734 10.9958 17.0934 10.7025 17.3334 10.5958C21.0667 8.9825 23.1467 6.9025 23.96 5.96917C24.16 5.7425 24.5067 5.75584 24.6934 5.99584C26.267 8.09053 27.1813 10.6063 27.32 13.2225C27.3334 13.5558 27.0667 13.7958 26.7734 13.7425ZM22.5734 4.37317C21.88 5.21317 19.9334 7.21317 16.24 8.67984C16.1331 8.723 16.0141 8.72509 15.9058 8.68571C15.7974 8.64632 15.7075 8.56823 15.6534 8.4665C14.3316 6.09668 12.8759 3.80408 11.2934 1.59984C11.0934 1.31984 11.2534 0.919837 11.5867 0.866504C12.36 0.73317 13.1734 0.666504 14 0.666504C17.2267 0.666504 20.2 1.81317 22.5067 3.73317C22.7067 3.87984 22.7334 4.17317 22.5734 4.37317ZM12.68 9.7705C7.62669 11.0372 3.16002 11.2105 1.53335 11.2372C1.22669 11.2372 1.00002 10.9438 1.08002 10.6505C2.04002 6.91717 4.60002 3.79717 7.97335 2.07717C8.17335 1.9705 8.42669 2.03717 8.56002 2.22384C9.25335 3.18384 11.1334 5.8905 12.9734 9.07717C13.12 9.34384 12.9867 9.6905 12.68 9.7705ZM15.2134 13.4492C15.3334 13.7025 15.1867 14.0092 14.92 14.1025C9.01335 16.0092 5.48002 20.7425 4.41335 22.3692C4.24002 22.6358 3.86669 22.6492 3.66669 22.4092C1.80002 20.1158 0.666687 17.4892 0.666687 14.3025V14.0625C0.666687 13.7958 0.88002 13.5825 1.14669 13.5958C2.82669 13.6625 8.30669 13.4358 14 11.7958C14.2134 11.7292 14.4534 11.8358 14.5467 12.0358C14.7734 12.5025 15 12.9692 15.2134 13.4492Z" fill="#204E51"/>
</svg>
