<svg width="28" height="18" viewBox="0 0 28 18" fill="none" xmlns="http://www.w3.org/2000/svg">
<path d="M10.2791 17.3333H2.8372C1.6465 17.3333 0.666656 16.319 0.666656 15.0864V2.24691C0.666656 1.01432 1.6465 0 2.8372 0H9.03875C11.6062 0 13.6899 2.15704 13.6899 4.81482C13.6899 6.13728 13.169 7.33136 12.338 8.20444C13.876 8.98766 14.9302 10.6311 14.9302 12.5185C14.9302 15.1763 12.8465 17.3333 10.2791 17.3333ZM2.52712 9.62963V15.0864C2.52712 15.2662 2.66356 15.4074 2.8372 15.4074H10.2791C11.817 15.4074 13.0698 14.1106 13.0698 12.5185C13.0698 10.9264 11.817 9.62963 10.2791 9.62963H2.52712ZM2.52712 7.7037H9.03875C10.5767 7.7037 11.8294 6.40691 11.8294 4.81482C11.8294 3.22272 10.5767 1.92593 9.03875 1.92593H2.8372C2.66356 1.92593 2.52712 2.06716 2.52712 2.24691V7.7037ZM23.5132 17.3333H21.4419C18.1922 17.3333 15.5504 14.5985 15.5504 11.2346C15.5504 7.87062 18.1922 5.1358 21.4419 5.1358C24.6915 5.1358 27.3333 7.87062 27.3333 11.2346C27.3333 11.761 26.9116 12.1975 26.4031 12.1975H17.5225C17.9442 14.0336 19.5442 15.4074 21.4419 15.4074H23.5132C24.0217 15.4074 24.4434 15.844 24.4434 16.3704C24.4434 16.8968 24.0217 17.3333 23.5132 17.3333ZM17.5225 10.2716H25.3736C25.1628 9.35906 24.6616 8.5464 23.9508 7.96423C23.2399 7.38207 22.3607 7.06421 21.4543 7.06173C20.5464 7.06404 19.6656 7.3816 18.9527 7.96356C18.2399 8.54552 17.7362 9.35824 17.5225 10.2716ZM23.3023 3.85185H19.5814C19.0729 3.85185 18.6512 3.41531 18.6512 2.88889C18.6512 2.36247 19.0729 1.92593 19.5814 1.92593H23.3023C23.8108 1.92593 24.2325 2.36247 24.2325 2.88889C24.2325 3.41531 23.8108 3.85185 23.3023 3.85185Z" fill="#204E51"/>
</svg>
