<svg width="212" height="40" viewBox="0 0 212 40" fill="none" xmlns="http://www.w3.org/2000/svg">
<g clip-path="url(#clip0_49_39)">
<path d="M24.05 16.6668L21.6 8.6001C21.1167 7.01676 18.8833 7.01676 18.4167 8.6001L15.95 16.6668H8.53334C6.91667 16.6668 6.25 18.7501 7.56667 19.6834L13.6333 24.0168L11.25 31.7001C10.7667 33.2501 12.5667 34.5001 13.85 33.5168L20 28.8501L26.15 33.5334C27.4333 34.5168 29.2333 33.2668 28.75 31.7168L26.3667 24.0334L32.4333 19.7001C33.75 18.7501 33.0833 16.6834 31.4667 16.6834H24.05V16.6668Z" fill="#FFBE40"/>
</g>
<g clip-path="url(#clip1_49_39)">
<path d="M67.05 16.6668L64.6 8.6001C64.1167 7.01676 61.8833 7.01676 61.4167 8.6001L58.95 16.6668H51.5333C49.9167 16.6668 49.25 18.7501 50.5667 19.6834L56.6333 24.0168L54.25 31.7001C53.7667 33.2501 55.5667 34.5001 56.85 33.5168L63 28.8501L69.15 33.5334C70.4333 34.5168 72.2333 33.2668 71.75 31.7168L69.3667 24.0334L75.4333 19.7001C76.75 18.7501 76.0833 16.6834 74.4667 16.6834H67.05V16.6668Z" fill="#FFBE40"/>
</g>
<g clip-path="url(#clip2_49_39)">
<path d="M110.05 16.6668L107.6 8.6001C107.117 7.01676 104.883 7.01676 104.417 8.6001L101.95 16.6668H94.5333C92.9167 16.6668 92.25 18.7501 93.5667 19.6834L99.6333 24.0168L97.25 31.7001C96.7667 33.2501 98.5667 34.5001 99.85 33.5168L106 28.8501L112.15 33.5334C113.433 34.5168 115.233 33.2668 114.75 31.7168L112.367 24.0334L118.433 19.7001C119.75 18.7501 119.083 16.6834 117.467 16.6834H110.05V16.6668Z" fill="#FFBE40"/>
</g>
<g clip-path="url(#clip3_49_39)">
<path d="M153.05 16.6668L150.6 8.6001C150.117 7.01676 147.883 7.01676 147.417 8.6001L144.95 16.6668H137.533C135.917 16.6668 135.25 18.7501 136.567 19.6834L142.633 24.0168L140.25 31.7001C139.767 33.2501 141.567 34.5001 142.85 33.5168L149 28.8501L155.15 33.5334C156.433 34.5168 158.233 33.2668 157.75 31.7168L155.367 24.0334L161.433 19.7001C162.75 18.7501 162.083 16.6834 160.467 16.6834H153.05V16.6668Z" fill="#FFBE40"/>
</g>
<g clip-path="url(#clip4_49_39)">
<path d="M196.05 16.6668L193.6 8.6001C193.117 7.01676 190.883 7.01676 190.417 8.6001L187.95 16.6668H180.533C178.917 16.6668 178.25 18.7501 179.567 19.6834L185.633 24.0168L183.25 31.7001C182.767 33.2501 184.567 34.5001 185.85 33.5168L192 28.8501L198.15 33.5334C199.433 34.5168 201.233 33.2668 200.75 31.7168L198.367 24.0334L204.433 19.7001C205.75 18.7501 205.083 16.6834 203.467 16.6834H196.05V16.6668Z" fill="#FFBE40"/>
</g>
<defs>
<clipPath id="clip0_49_39">
<rect width="40" height="40" fill="white"/>
</clipPath>
<clipPath id="clip1_49_39">
<rect width="40" height="40" fill="white" transform="translate(43)"/>
</clipPath>
<clipPath id="clip2_49_39">
<rect width="40" height="40" fill="white" transform="translate(86)"/>
</clipPath>
<clipPath id="clip3_49_39">
<rect width="40" height="40" fill="white" transform="translate(129)"/>
</clipPath>
<clipPath id="clip4_49_39">
<rect width="40" height="40" fill="white" transform="translate(172)"/>
</clipPath>
</defs>
</svg>
