<svg width="125" height="125" viewBox="0 0 125 125" fill="none" xmlns="http://www.w3.org/2000/svg">
<circle opacity="0.3" cx="62.5" cy="62.5" r="62.5" fill="black" fill-opacity="0.4"/>
<g clip-path="url(#clip0_45_8)">
<path d="M62.5 65.1562C68.2729 65.1562 73.3729 66.5375 77.5167 68.3438C81.3417 70.0437 83.75 73.8687 83.75 78.0125V80.2083C83.75 82.1562 82.1562 83.75 80.2083 83.75H44.7917C42.8438 83.75 41.25 82.1562 41.25 80.2083V78.0479C41.25 73.8687 43.6583 70.0438 47.4833 68.3792C51.6271 66.5375 56.7271 65.1562 62.5 65.1562ZM34.1667 66.0417C38.0625 66.0417 41.25 62.8542 41.25 58.9583C41.25 55.0625 38.0625 51.875 34.1667 51.875C30.2708 51.875 27.0833 55.0625 27.0833 58.9583C27.0833 62.8542 30.2708 66.0417 34.1667 66.0417ZM38.1688 69.9375C36.8583 69.725 35.5479 69.5833 34.1667 69.5833C30.6604 69.5833 27.3313 70.3271 24.3208 71.6375C21.7 72.7708 20 75.3208 20 78.1896V80.2083C20 82.1562 21.5938 83.75 23.5417 83.75H35.9375V78.0479C35.9375 75.1083 36.7521 72.3458 38.1688 69.9375ZM90.8333 66.0417C94.7292 66.0417 97.9167 62.8542 97.9167 58.9583C97.9167 55.0625 94.7292 51.875 90.8333 51.875C86.9375 51.875 83.75 55.0625 83.75 58.9583C83.75 62.8542 86.9375 66.0417 90.8333 66.0417ZM105 78.1896C105 75.3208 103.3 72.7708 100.679 71.6375C97.6688 70.3271 94.3396 69.5833 90.8333 69.5833C89.4521 69.5833 88.1417 69.725 86.8313 69.9375C88.2479 72.3458 89.0625 75.1083 89.0625 78.0479V83.75H101.458C103.406 83.75 105 82.1562 105 80.2083V78.1896ZM62.5 41.25C68.3792 41.25 73.125 45.9958 73.125 51.875C73.125 57.7542 68.3792 62.5 62.5 62.5C56.6208 62.5 51.875 57.7542 51.875 51.875C51.875 45.9958 56.6208 41.25 62.5 41.25Z" fill="white"/>
</g>
<defs>
<clipPath id="clip0_45_8">
<rect width="85" height="85" fill="white" transform="translate(20 20)"/>
</clipPath>
</defs>
</svg>
